<mxfile host="app.diagrams.net" modified="2022-07-21T18:21:17.193Z" agent="5.0 (Windows NT 10.0; Win64; x64) AppleWebKit/537.36 (KHTML, like Gecko) Chrome/103.0.0.0 Safari/537.36" etag="ybVH_inxV3RFmmyW6XTa" version="20.1.4" type="github">
  <diagram id="hRb4JNGb5WeZRkYVQXeL" name="Trang-1">
    <mxGraphModel dx="2370" dy="1340" grid="1" gridSize="10" guides="1" tooltips="1" connect="1" arrows="1" fold="1" page="1" pageScale="1" pageWidth="3300" pageHeight="4681" math="0" shadow="0">
      <root>
        <mxCell id="0" />
        <mxCell id="1" parent="0" />
        <mxCell id="m32H3NvDA5NygTMLO7Qs-1" value="LOST AND FOUND SYSTEM" style="swimlane;" vertex="1" parent="1">
          <mxGeometry x="1165" y="590" width="970" height="1510" as="geometry" />
        </mxCell>
        <mxCell id="m32H3NvDA5NygTMLO7Qs-10" value="Login" style="ellipse;whiteSpace=wrap;html=1;fontFamily=Times New Roman;fontSize=13;" vertex="1" parent="m32H3NvDA5NygTMLO7Qs-1">
          <mxGeometry x="720" y="518" width="120" height="80" as="geometry" />
        </mxCell>
        <mxCell id="m32H3NvDA5NygTMLO7Qs-11" value="&#xa;&lt;span style=&quot;font-size: 13px;&quot; id=&quot;docs-internal-guid-57e6cc70-7fff-2288-da30-9fa0283589cd&quot;&gt;&lt;span style=&quot;font-size: 13px; color: rgb(0, 0, 0); background-color: transparent; font-style: normal; font-variant: normal; text-decoration: none; vertical-align: baseline;&quot;&gt;Report Lost Item &lt;/span&gt;&lt;/span&gt;&#xa;&#xa;" style="ellipse;whiteSpace=wrap;html=1;fontFamily=Times New Roman;fontSize=13;fontStyle=0" vertex="1" parent="m32H3NvDA5NygTMLO7Qs-1">
          <mxGeometry x="390" y="260" width="120" height="80" as="geometry" />
        </mxCell>
        <mxCell id="m32H3NvDA5NygTMLO7Qs-12" value="&#xa;&lt;span style=&quot;font-size: 13px;&quot; id=&quot;docs-internal-guid-a6401658-7fff-9467-f096-9325ce5fed40&quot;&gt;&lt;span style=&quot;font-size: 13px; color: rgb(0, 0, 0); background-color: transparent; font-style: normal; font-variant: normal; text-decoration: none; vertical-align: baseline;&quot;&gt;Report Found Item &lt;/span&gt;&lt;/span&gt;&#xa;&#xa;" style="ellipse;whiteSpace=wrap;html=1;fontFamily=Times New Roman;fontSize=13;fontStyle=0" vertex="1" parent="m32H3NvDA5NygTMLO7Qs-1">
          <mxGeometry x="390" y="370" width="120" height="80" as="geometry" />
        </mxCell>
        <mxCell id="m32H3NvDA5NygTMLO7Qs-13" value="&#xa;&lt;span style=&quot;font-size: 13px;&quot; id=&quot;docs-internal-guid-c01a8058-7fff-ab05-29e0-8b2dcffc7d1b&quot;&gt;&lt;span style=&quot;font-size: 13px; color: rgb(0, 0, 0); background-color: transparent; font-style: normal; font-variant: normal; text-decoration: none; vertical-align: baseline;&quot;&gt;View &lt;/span&gt;&lt;span style=&quot;font-size: 13px; color: rgb(32, 33, 36); background-color: rgb(248, 249, 250); font-style: normal; font-variant: normal; text-decoration: none; vertical-align: baseline;&quot;&gt;notification&lt;/span&gt;&lt;/span&gt;&#xa;&#xa;" style="ellipse;whiteSpace=wrap;html=1;fontFamily=Times New Roman;fontSize=13;fontStyle=0" vertex="1" parent="m32H3NvDA5NygTMLO7Qs-1">
          <mxGeometry x="410" y="790" width="120" height="80" as="geometry" />
        </mxCell>
        <mxCell id="m32H3NvDA5NygTMLO7Qs-14" value="&#xa;&lt;span style=&quot;font-size: 13px;&quot; id=&quot;docs-internal-guid-622151dd-7fff-d390-4db7-5324e746c455&quot;&gt;&lt;span style=&quot;font-size: 13px; color: rgb(0, 0, 0); background-color: transparent; font-style: normal; font-variant: normal; text-decoration: none; vertical-align: baseline;&quot;&gt;Comment &lt;/span&gt;&lt;/span&gt;&#xa;&#xa;" style="ellipse;whiteSpace=wrap;html=1;fontFamily=Times New Roman;fontSize=13;fontStyle=0" vertex="1" parent="m32H3NvDA5NygTMLO7Qs-1">
          <mxGeometry x="410" y="910" width="120" height="80" as="geometry" />
        </mxCell>
        <mxCell id="m32H3NvDA5NygTMLO7Qs-15" value="&#xa;&lt;span style=&quot;font-size: 13px;&quot; id=&quot;docs-internal-guid-71aba199-7fff-7118-6935-475ed9ad370b&quot;&gt;&lt;span style=&quot;font-size: 13px; color: rgb(0, 0, 0); background-color: transparent; font-style: normal; font-variant: normal; text-decoration: none; vertical-align: baseline;&quot;&gt;Chat &lt;/span&gt;&lt;/span&gt;&#xa;&#xa;" style="ellipse;whiteSpace=wrap;html=1;fontFamily=Times New Roman;fontSize=13;fontStyle=0" vertex="1" parent="m32H3NvDA5NygTMLO7Qs-1">
          <mxGeometry x="400" y="1040" width="120" height="80" as="geometry" />
        </mxCell>
        <mxCell id="m32H3NvDA5NygTMLO7Qs-16" value="&lt;span id=&quot;docs-internal-guid-0fc78d23-7fff-f567-e391-59e30707fce7&quot; style=&quot;font-size: 13px;&quot;&gt;&lt;span style=&quot;font-size: 13px; background-color: transparent; font-variant-numeric: normal; font-variant-east-asian: normal; vertical-align: baseline;&quot;&gt;View Home page &lt;/span&gt;&lt;/span&gt;" style="ellipse;whiteSpace=wrap;html=1;fontFamily=Times New Roman;fontSize=13;fontStyle=0" vertex="1" parent="m32H3NvDA5NygTMLO7Qs-1">
          <mxGeometry x="420" y="550" width="120" height="80" as="geometry" />
        </mxCell>
        <mxCell id="m32H3NvDA5NygTMLO7Qs-17" value="&#xa;&lt;span style=&quot;font-size: 13px;&quot; id=&quot;docs-internal-guid-eac0885b-7fff-efeb-ffb2-01e776d890ce&quot;&gt;&lt;span style=&quot;font-size: 13px; color: rgb(0, 0, 0); background-color: transparent; font-style: normal; font-variant: normal; text-decoration: none; vertical-align: baseline;&quot;&gt;View items list&lt;/span&gt;&lt;/span&gt;&#xa;&#xa;" style="ellipse;whiteSpace=wrap;html=1;fontFamily=Times New Roman;fontSize=13;fontStyle=0" vertex="1" parent="m32H3NvDA5NygTMLO7Qs-1">
          <mxGeometry x="390" y="1170" width="120" height="80" as="geometry" />
        </mxCell>
        <mxCell id="m32H3NvDA5NygTMLO7Qs-20" value="Search by content" style="ellipse;whiteSpace=wrap;html=1;fontFamily=Times New Roman;fontSize=13;fontStyle=0" vertex="1" parent="m32H3NvDA5NygTMLO7Qs-1">
          <mxGeometry x="425" y="680" width="120" height="80" as="geometry" />
        </mxCell>
        <mxCell id="m32H3NvDA5NygTMLO7Qs-18" value="&#xa;&lt;b id=&quot;docs-internal-guid-0afe5554-7fff-182c-a090-3c3bc5ad45e6&quot; style=&quot;font-weight:normal;&quot;&gt;&lt;span style=&quot;font-size: 12pt; font-family: &amp;quot;Times New Roman&amp;quot;; color: rgb(0, 0, 0); background-color: transparent; font-weight: 400; font-style: normal; font-variant: normal; text-decoration: none; vertical-align: baseline;&quot;&gt;Edit account info&lt;/span&gt;&lt;/b&gt;&#xa;&#xa;" style="ellipse;whiteSpace=wrap;html=1;" vertex="1" parent="m32H3NvDA5NygTMLO7Qs-1">
          <mxGeometry x="380" y="1320" width="120" height="80" as="geometry" />
        </mxCell>
        <mxCell id="m32H3NvDA5NygTMLO7Qs-27" value="Have @fpt.edu.vn email" style="ellipse;whiteSpace=wrap;html=1;fontFamily=Times New Roman;fontSize=13;" vertex="1" parent="m32H3NvDA5NygTMLO7Qs-1">
          <mxGeometry x="800" y="390" width="100" height="60" as="geometry" />
        </mxCell>
        <mxCell id="m32H3NvDA5NygTMLO7Qs-24" value="" style="endArrow=classic;html=1;rounded=0;fontFamily=Times New Roman;fontSize=13;exitX=1;exitY=0.5;exitDx=0;exitDy=0;labelBorderColor=none;dashed=1;" edge="1" parent="m32H3NvDA5NygTMLO7Qs-1" source="m32H3NvDA5NygTMLO7Qs-10" target="m32H3NvDA5NygTMLO7Qs-27">
          <mxGeometry width="50" height="50" relative="1" as="geometry">
            <mxPoint x="640.52" y="96.24000000000001" as="sourcePoint" />
            <mxPoint x="710" y="100" as="targetPoint" />
          </mxGeometry>
        </mxCell>
        <mxCell id="m32H3NvDA5NygTMLO7Qs-40" value="&amp;lt;&amp;lt;Include&amp;gt;&amp;gt;" style="edgeLabel;html=1;align=center;verticalAlign=middle;resizable=0;points=[];fontSize=13;fontFamily=Times New Roman;" vertex="1" connectable="0" parent="m32H3NvDA5NygTMLO7Qs-24">
          <mxGeometry x="-0.3727" y="2" relative="1" as="geometry">
            <mxPoint as="offset" />
          </mxGeometry>
        </mxCell>
        <mxCell id="m32H3NvDA5NygTMLO7Qs-41" value="" style="endArrow=classic;html=1;rounded=0;fontFamily=Times New Roman;fontSize=13;exitX=1;exitY=0.5;exitDx=0;exitDy=0;labelBorderColor=none;dashed=1;" edge="1" parent="m32H3NvDA5NygTMLO7Qs-1" source="m32H3NvDA5NygTMLO7Qs-16" target="m32H3NvDA5NygTMLO7Qs-10">
          <mxGeometry width="50" height="50" relative="1" as="geometry">
            <mxPoint x="609.9999999999995" y="100" as="sourcePoint" />
            <mxPoint x="540" y="130" as="targetPoint" />
          </mxGeometry>
        </mxCell>
        <mxCell id="m32H3NvDA5NygTMLO7Qs-42" value="&amp;lt;&amp;lt;Include&amp;gt;&amp;gt;" style="edgeLabel;html=1;align=center;verticalAlign=middle;resizable=0;points=[];fontSize=13;fontFamily=Times New Roman;" vertex="1" connectable="0" parent="m32H3NvDA5NygTMLO7Qs-41">
          <mxGeometry x="-0.3727" y="2" relative="1" as="geometry">
            <mxPoint as="offset" />
          </mxGeometry>
        </mxCell>
        <mxCell id="m32H3NvDA5NygTMLO7Qs-47" value="" style="endArrow=classic;html=1;rounded=0;fontFamily=Times New Roman;fontSize=13;exitX=1;exitY=0.5;exitDx=0;exitDy=0;labelBorderColor=none;dashed=1;" edge="1" parent="m32H3NvDA5NygTMLO7Qs-1" source="m32H3NvDA5NygTMLO7Qs-12" target="m32H3NvDA5NygTMLO7Qs-10">
          <mxGeometry width="50" height="50" relative="1" as="geometry">
            <mxPoint x="514.5999999999999" y="257.68000000000006" as="sourcePoint" />
            <mxPoint x="554.5402409663798" y="158.6493975840492" as="targetPoint" />
          </mxGeometry>
        </mxCell>
        <mxCell id="m32H3NvDA5NygTMLO7Qs-48" value="&amp;lt;&amp;lt;Include&amp;gt;&amp;gt;" style="edgeLabel;html=1;align=center;verticalAlign=middle;resizable=0;points=[];fontSize=13;fontFamily=Times New Roman;" vertex="1" connectable="0" parent="m32H3NvDA5NygTMLO7Qs-47">
          <mxGeometry x="-0.3727" y="2" relative="1" as="geometry">
            <mxPoint as="offset" />
          </mxGeometry>
        </mxCell>
        <mxCell id="m32H3NvDA5NygTMLO7Qs-43" value="" style="endArrow=classic;html=1;rounded=0;fontFamily=Times New Roman;fontSize=13;exitX=1.043;exitY=0.596;exitDx=0;exitDy=0;labelBorderColor=none;dashed=1;exitPerimeter=0;" edge="1" parent="m32H3NvDA5NygTMLO7Qs-1" source="m32H3NvDA5NygTMLO7Qs-20" target="m32H3NvDA5NygTMLO7Qs-10">
          <mxGeometry width="50" height="50" relative="1" as="geometry">
            <mxPoint x="494.5999999999999" y="237.68000000000006" as="sourcePoint" />
            <mxPoint x="540" y="140" as="targetPoint" />
          </mxGeometry>
        </mxCell>
        <mxCell id="m32H3NvDA5NygTMLO7Qs-44" value="&amp;lt;&amp;lt;Include&amp;gt;&amp;gt;" style="edgeLabel;html=1;align=center;verticalAlign=middle;resizable=0;points=[];fontSize=13;fontFamily=Times New Roman;" vertex="1" connectable="0" parent="m32H3NvDA5NygTMLO7Qs-43">
          <mxGeometry x="-0.3727" y="2" relative="1" as="geometry">
            <mxPoint as="offset" />
          </mxGeometry>
        </mxCell>
        <mxCell id="m32H3NvDA5NygTMLO7Qs-45" value="" style="endArrow=classic;html=1;rounded=0;fontFamily=Times New Roman;fontSize=13;exitX=1.034;exitY=0.392;exitDx=0;exitDy=0;labelBorderColor=none;dashed=1;exitPerimeter=0;" edge="1" parent="m32H3NvDA5NygTMLO7Qs-1" source="m32H3NvDA5NygTMLO7Qs-11" target="m32H3NvDA5NygTMLO7Qs-10">
          <mxGeometry width="50" height="50" relative="1" as="geometry">
            <mxPoint x="504.5999999999999" y="247.68000000000006" as="sourcePoint" />
            <mxPoint x="544.5402409663798" y="148.6493975840492" as="targetPoint" />
          </mxGeometry>
        </mxCell>
        <mxCell id="m32H3NvDA5NygTMLO7Qs-46" value="&amp;lt;&amp;lt;Include&amp;gt;&amp;gt;" style="edgeLabel;html=1;align=center;verticalAlign=middle;resizable=0;points=[];fontSize=13;fontFamily=Times New Roman;" vertex="1" connectable="0" parent="m32H3NvDA5NygTMLO7Qs-45">
          <mxGeometry x="-0.3727" y="2" relative="1" as="geometry">
            <mxPoint as="offset" />
          </mxGeometry>
        </mxCell>
        <mxCell id="m32H3NvDA5NygTMLO7Qs-49" value="" style="endArrow=classic;html=1;rounded=0;fontFamily=Times New Roman;fontSize=13;exitX=1;exitY=0.5;exitDx=0;exitDy=0;labelBorderColor=none;dashed=1;" edge="1" parent="m32H3NvDA5NygTMLO7Qs-1" source="m32H3NvDA5NygTMLO7Qs-13" target="m32H3NvDA5NygTMLO7Qs-10">
          <mxGeometry width="50" height="50" relative="1" as="geometry">
            <mxPoint x="499.99999999999955" y="549.9999999999998" as="sourcePoint" />
            <mxPoint x="549.9999999999995" y="140" as="targetPoint" />
          </mxGeometry>
        </mxCell>
        <mxCell id="m32H3NvDA5NygTMLO7Qs-50" value="&amp;lt;&amp;lt;Include&amp;gt;&amp;gt;" style="edgeLabel;html=1;align=center;verticalAlign=middle;resizable=0;points=[];fontSize=13;fontFamily=Times New Roman;" vertex="1" connectable="0" parent="m32H3NvDA5NygTMLO7Qs-49">
          <mxGeometry x="-0.3727" y="2" relative="1" as="geometry">
            <mxPoint as="offset" />
          </mxGeometry>
        </mxCell>
        <mxCell id="m32H3NvDA5NygTMLO7Qs-51" value="" style="endArrow=classic;html=1;rounded=0;fontFamily=Times New Roman;fontSize=13;exitX=1;exitY=0.5;exitDx=0;exitDy=0;labelBorderColor=none;dashed=1;" edge="1" parent="m32H3NvDA5NygTMLO7Qs-1" source="m32H3NvDA5NygTMLO7Qs-14" target="m32H3NvDA5NygTMLO7Qs-10">
          <mxGeometry width="50" height="50" relative="1" as="geometry">
            <mxPoint x="509.99999999999955" y="559.9999999999998" as="sourcePoint" />
            <mxPoint x="559.9999999999995" y="150" as="targetPoint" />
          </mxGeometry>
        </mxCell>
        <mxCell id="m32H3NvDA5NygTMLO7Qs-52" value="&amp;lt;&amp;lt;Include&amp;gt;&amp;gt;" style="edgeLabel;html=1;align=center;verticalAlign=middle;resizable=0;points=[];fontSize=13;fontFamily=Times New Roman;" vertex="1" connectable="0" parent="m32H3NvDA5NygTMLO7Qs-51">
          <mxGeometry x="-0.3727" y="2" relative="1" as="geometry">
            <mxPoint as="offset" />
          </mxGeometry>
        </mxCell>
        <mxCell id="m32H3NvDA5NygTMLO7Qs-55" value="" style="endArrow=classic;html=1;rounded=0;fontFamily=Times New Roman;fontSize=13;exitX=1;exitY=0.5;exitDx=0;exitDy=0;labelBorderColor=none;dashed=1;" edge="1" parent="m32H3NvDA5NygTMLO7Qs-1" source="m32H3NvDA5NygTMLO7Qs-17" target="m32H3NvDA5NygTMLO7Qs-10">
          <mxGeometry width="50" height="50" relative="1" as="geometry">
            <mxPoint x="529.9999999999995" y="579.9999999999998" as="sourcePoint" />
            <mxPoint x="579.9999999999995" y="170" as="targetPoint" />
          </mxGeometry>
        </mxCell>
        <mxCell id="m32H3NvDA5NygTMLO7Qs-56" value="&amp;lt;&amp;lt;Include&amp;gt;&amp;gt;" style="edgeLabel;html=1;align=center;verticalAlign=middle;resizable=0;points=[];fontSize=13;fontFamily=Times New Roman;" vertex="1" connectable="0" parent="m32H3NvDA5NygTMLO7Qs-55">
          <mxGeometry x="-0.3727" y="2" relative="1" as="geometry">
            <mxPoint as="offset" />
          </mxGeometry>
        </mxCell>
        <mxCell id="m32H3NvDA5NygTMLO7Qs-57" value="" style="endArrow=classic;html=1;rounded=0;fontFamily=Times New Roman;fontSize=13;exitX=0.975;exitY=0.297;exitDx=0;exitDy=0;labelBorderColor=none;dashed=1;entryX=0.5;entryY=1;entryDx=0;entryDy=0;exitPerimeter=0;" edge="1" parent="m32H3NvDA5NygTMLO7Qs-1" source="m32H3NvDA5NygTMLO7Qs-18" target="m32H3NvDA5NygTMLO7Qs-10">
          <mxGeometry width="50" height="50" relative="1" as="geometry">
            <mxPoint x="539.9999999999995" y="589.9999999999998" as="sourcePoint" />
            <mxPoint x="589.9999999999995" y="180" as="targetPoint" />
          </mxGeometry>
        </mxCell>
        <mxCell id="m32H3NvDA5NygTMLO7Qs-58" value="&amp;lt;&amp;lt;Include&amp;gt;&amp;gt;" style="edgeLabel;html=1;align=center;verticalAlign=middle;resizable=0;points=[];fontSize=13;fontFamily=Times New Roman;" vertex="1" connectable="0" parent="m32H3NvDA5NygTMLO7Qs-57">
          <mxGeometry x="-0.3727" y="2" relative="1" as="geometry">
            <mxPoint as="offset" />
          </mxGeometry>
        </mxCell>
        <mxCell id="m32H3NvDA5NygTMLO7Qs-53" value="" style="endArrow=classic;html=1;rounded=0;fontFamily=Times New Roman;fontSize=13;exitX=1;exitY=0.5;exitDx=0;exitDy=0;labelBorderColor=none;dashed=1;" edge="1" parent="m32H3NvDA5NygTMLO7Qs-1" source="m32H3NvDA5NygTMLO7Qs-15" target="m32H3NvDA5NygTMLO7Qs-10">
          <mxGeometry width="50" height="50" relative="1" as="geometry">
            <mxPoint x="419.99999999999955" y="389.9999999999998" as="sourcePoint" />
            <mxPoint x="650" y="450" as="targetPoint" />
          </mxGeometry>
        </mxCell>
        <mxCell id="m32H3NvDA5NygTMLO7Qs-54" value="&amp;lt;&amp;lt;Include&amp;gt;&amp;gt;" style="edgeLabel;html=1;align=center;verticalAlign=middle;resizable=0;points=[];fontSize=13;fontFamily=Times New Roman;" vertex="1" connectable="0" parent="m32H3NvDA5NygTMLO7Qs-53">
          <mxGeometry x="-0.3727" y="2" relative="1" as="geometry">
            <mxPoint as="offset" />
          </mxGeometry>
        </mxCell>
        <mxCell id="m32H3NvDA5NygTMLO7Qs-60" value="&lt;br&gt;&lt;b id=&quot;docs-internal-guid-0afe5554-7fff-182c-a090-3c3bc5ad45e6&quot; style=&quot;font-weight:normal;&quot;&gt;&lt;span style=&quot;font-size: 12pt; font-family: &amp;quot;Times New Roman&amp;quot;; color: rgb(0, 0, 0); background-color: transparent; font-weight: 400; font-style: normal; font-variant: normal; text-decoration: none; vertical-align: baseline;&quot;&gt;Update account info (Phone, birth, gender)&lt;/span&gt;&lt;/b&gt;" style="ellipse;whiteSpace=wrap;html=1;" vertex="1" parent="m32H3NvDA5NygTMLO7Qs-1">
          <mxGeometry x="635" y="1350" width="120" height="80" as="geometry" />
        </mxCell>
        <mxCell id="m32H3NvDA5NygTMLO7Qs-62" value="" style="endArrow=classic;html=1;rounded=0;dashed=1;labelBorderColor=none;fontFamily=Times New Roman;fontSize=13;exitX=0;exitY=0.5;exitDx=0;exitDy=0;entryX=1;entryY=0.5;entryDx=0;entryDy=0;" edge="1" parent="m32H3NvDA5NygTMLO7Qs-1" source="m32H3NvDA5NygTMLO7Qs-60" target="m32H3NvDA5NygTMLO7Qs-18">
          <mxGeometry width="50" height="50" relative="1" as="geometry">
            <mxPoint x="535" y="1190" as="sourcePoint" />
            <mxPoint x="585" y="1140" as="targetPoint" />
          </mxGeometry>
        </mxCell>
        <mxCell id="m32H3NvDA5NygTMLO7Qs-64" value="Deactive account" style="ellipse;whiteSpace=wrap;html=1;" vertex="1" parent="m32H3NvDA5NygTMLO7Qs-1">
          <mxGeometry x="610" y="1250" width="120" height="80" as="geometry" />
        </mxCell>
        <mxCell id="m32H3NvDA5NygTMLO7Qs-66" value="&amp;lt;&amp;lt;Extend&amp;gt;&amp;gt;" style="text;html=1;align=center;verticalAlign=middle;resizable=0;points=[];autosize=1;strokeColor=none;fillColor=none;fontSize=13;fontFamily=Times New Roman;" vertex="1" parent="m32H3NvDA5NygTMLO7Qs-1">
          <mxGeometry x="530" y="1300" width="90" height="30" as="geometry" />
        </mxCell>
        <mxCell id="m32H3NvDA5NygTMLO7Qs-67" value="" style="endArrow=classic;html=1;rounded=0;dashed=1;labelBorderColor=none;fontFamily=Times New Roman;fontSize=13;entryX=1;entryY=0.5;entryDx=0;entryDy=0;" edge="1" parent="m32H3NvDA5NygTMLO7Qs-1" source="m32H3NvDA5NygTMLO7Qs-64" target="m32H3NvDA5NygTMLO7Qs-18">
          <mxGeometry width="50" height="50" relative="1" as="geometry">
            <mxPoint x="715" y="1410" as="sourcePoint" />
            <mxPoint x="505" y="1350" as="targetPoint" />
          </mxGeometry>
        </mxCell>
        <mxCell id="m32H3NvDA5NygTMLO7Qs-63" value="&amp;lt;&amp;lt;Extend&amp;gt;&amp;gt;" style="text;html=1;align=center;verticalAlign=middle;resizable=0;points=[];autosize=1;strokeColor=none;fillColor=none;fontSize=13;fontFamily=Times New Roman;" vertex="1" parent="m32H3NvDA5NygTMLO7Qs-1">
          <mxGeometry x="545" y="1370" width="90" height="30" as="geometry" />
        </mxCell>
        <mxCell id="m32H3NvDA5NygTMLO7Qs-70" value="Admin role" style="ellipse;whiteSpace=wrap;html=1;fontFamily=Times New Roman;fontSize=13;" vertex="1" parent="m32H3NvDA5NygTMLO7Qs-1">
          <mxGeometry x="680" y="1090" width="120" height="80" as="geometry" />
        </mxCell>
        <mxCell id="m32H3NvDA5NygTMLO7Qs-71" value="My lost items" style="ellipse;whiteSpace=wrap;html=1;fontFamily=Times New Roman;fontSize=13;fontStyle=0" vertex="1" parent="m32H3NvDA5NygTMLO7Qs-1">
          <mxGeometry x="390" y="60" width="120" height="80" as="geometry" />
        </mxCell>
        <mxCell id="m32H3NvDA5NygTMLO7Qs-72" value="My found items" style="ellipse;whiteSpace=wrap;html=1;fontFamily=Times New Roman;fontSize=13;fontStyle=0" vertex="1" parent="m32H3NvDA5NygTMLO7Qs-1">
          <mxGeometry x="390" y="160" width="120" height="80" as="geometry" />
        </mxCell>
        <mxCell id="m32H3NvDA5NygTMLO7Qs-68" value="" style="endArrow=classic;html=1;rounded=0;fontFamily=Times New Roman;fontSize=13;exitX=0.558;exitY=-0.037;exitDx=0;exitDy=0;labelBorderColor=none;dashed=1;exitPerimeter=0;" edge="1" parent="m32H3NvDA5NygTMLO7Qs-1" source="m32H3NvDA5NygTMLO7Qs-64" target="m32H3NvDA5NygTMLO7Qs-70">
          <mxGeometry width="50" height="50" relative="1" as="geometry">
            <mxPoint x="575" y="950" as="sourcePoint" />
            <mxPoint x="750" y="1160" as="targetPoint" />
          </mxGeometry>
        </mxCell>
        <mxCell id="m32H3NvDA5NygTMLO7Qs-69" value="&amp;lt;&amp;lt;Include&amp;gt;&amp;gt;" style="edgeLabel;html=1;align=center;verticalAlign=middle;resizable=0;points=[];fontSize=13;fontFamily=Times New Roman;" vertex="1" connectable="0" parent="m32H3NvDA5NygTMLO7Qs-68">
          <mxGeometry x="-0.3727" y="2" relative="1" as="geometry">
            <mxPoint as="offset" />
          </mxGeometry>
        </mxCell>
        <mxCell id="m32H3NvDA5NygTMLO7Qs-75" value="View, Update, Edit" style="ellipse;whiteSpace=wrap;html=1;fontFamily=Times New Roman;fontSize=13;" vertex="1" parent="m32H3NvDA5NygTMLO7Qs-1">
          <mxGeometry x="640" y="30" width="80" height="60" as="geometry" />
        </mxCell>
        <mxCell id="m32H3NvDA5NygTMLO7Qs-76" value="View, Update, Edit" style="ellipse;whiteSpace=wrap;html=1;fontFamily=Times New Roman;fontSize=13;" vertex="1" parent="m32H3NvDA5NygTMLO7Qs-1">
          <mxGeometry x="625" y="275" width="90" height="50" as="geometry" />
        </mxCell>
        <mxCell id="m32H3NvDA5NygTMLO7Qs-77" value="" style="endArrow=classic;html=1;rounded=0;dashed=1;labelBorderColor=none;fontFamily=Times New Roman;fontSize=13;entryX=1;entryY=0.5;entryDx=0;entryDy=0;" edge="1" parent="m32H3NvDA5NygTMLO7Qs-1" source="m32H3NvDA5NygTMLO7Qs-75" target="m32H3NvDA5NygTMLO7Qs-71">
          <mxGeometry width="50" height="50" relative="1" as="geometry">
            <mxPoint x="530" y="440" as="sourcePoint" />
            <mxPoint x="580" y="390" as="targetPoint" />
          </mxGeometry>
        </mxCell>
        <mxCell id="m32H3NvDA5NygTMLO7Qs-78" value="&amp;lt;&amp;lt;Extend&amp;gt;&amp;gt;" style="edgeLabel;html=1;align=center;verticalAlign=middle;resizable=0;points=[];fontSize=13;fontFamily=Times New Roman;" vertex="1" connectable="0" parent="m32H3NvDA5NygTMLO7Qs-77">
          <mxGeometry x="0.309" y="2" relative="1" as="geometry">
            <mxPoint as="offset" />
          </mxGeometry>
        </mxCell>
        <mxCell id="m32H3NvDA5NygTMLO7Qs-79" value="" style="endArrow=classic;html=1;rounded=0;dashed=1;labelBorderColor=none;fontFamily=Times New Roman;fontSize=13;" edge="1" parent="m32H3NvDA5NygTMLO7Qs-1" source="m32H3NvDA5NygTMLO7Qs-76" target="m32H3NvDA5NygTMLO7Qs-72">
          <mxGeometry width="50" height="50" relative="1" as="geometry">
            <mxPoint x="630.2174322131232" y="103.4022599553507" as="sourcePoint" />
            <mxPoint x="520" y="110" as="targetPoint" />
          </mxGeometry>
        </mxCell>
        <mxCell id="m32H3NvDA5NygTMLO7Qs-80" value="&amp;lt;&amp;lt;Extend&amp;gt;&amp;gt;" style="edgeLabel;html=1;align=center;verticalAlign=middle;resizable=0;points=[];fontSize=13;fontFamily=Times New Roman;" vertex="1" connectable="0" parent="m32H3NvDA5NygTMLO7Qs-79">
          <mxGeometry x="0.309" y="2" relative="1" as="geometry">
            <mxPoint as="offset" />
          </mxGeometry>
        </mxCell>
        <mxCell id="m32H3NvDA5NygTMLO7Qs-81" value="Deactive" style="ellipse;whiteSpace=wrap;html=1;fontFamily=Times New Roman;fontSize=13;" vertex="1" parent="m32H3NvDA5NygTMLO7Qs-1">
          <mxGeometry x="635" y="200" width="90" height="60" as="geometry" />
        </mxCell>
        <mxCell id="m32H3NvDA5NygTMLO7Qs-82" value="" style="endArrow=classic;html=1;rounded=0;dashed=1;labelBorderColor=none;fontFamily=Times New Roman;fontSize=13;entryX=1;entryY=0.5;entryDx=0;entryDy=0;" edge="1" parent="m32H3NvDA5NygTMLO7Qs-1" source="m32H3NvDA5NygTMLO7Qs-81" target="m32H3NvDA5NygTMLO7Qs-72">
          <mxGeometry width="50" height="50" relative="1" as="geometry">
            <mxPoint x="625.8094306966796" y="267.09645450427433" as="sourcePoint" />
            <mxPoint x="494.6399999999999" y="205.99999999999977" as="targetPoint" />
          </mxGeometry>
        </mxCell>
        <mxCell id="m32H3NvDA5NygTMLO7Qs-83" value="&amp;lt;&amp;lt;Extend&amp;gt;&amp;gt;" style="edgeLabel;html=1;align=center;verticalAlign=middle;resizable=0;points=[];fontSize=13;fontFamily=Times New Roman;" vertex="1" connectable="0" parent="m32H3NvDA5NygTMLO7Qs-82">
          <mxGeometry x="0.309" y="2" relative="1" as="geometry">
            <mxPoint as="offset" />
          </mxGeometry>
        </mxCell>
        <mxCell id="m32H3NvDA5NygTMLO7Qs-84" value="Deactive" style="ellipse;whiteSpace=wrap;html=1;fontFamily=Times New Roman;fontSize=13;" vertex="1" parent="m32H3NvDA5NygTMLO7Qs-1">
          <mxGeometry x="635" y="100" width="90" height="60" as="geometry" />
        </mxCell>
        <mxCell id="m32H3NvDA5NygTMLO7Qs-86" value="" style="endArrow=classic;html=1;rounded=0;dashed=1;labelBorderColor=none;fontFamily=Times New Roman;fontSize=13;" edge="1" parent="m32H3NvDA5NygTMLO7Qs-1" source="m32H3NvDA5NygTMLO7Qs-84" target="m32H3NvDA5NygTMLO7Qs-71">
          <mxGeometry width="50" height="50" relative="1" as="geometry">
            <mxPoint x="646.461121593939" y="232.4173863450119" as="sourcePoint" />
            <mxPoint x="520.0000000000095" y="210" as="targetPoint" />
          </mxGeometry>
        </mxCell>
        <mxCell id="m32H3NvDA5NygTMLO7Qs-87" value="&amp;lt;&amp;lt;Extend&amp;gt;&amp;gt;" style="edgeLabel;html=1;align=center;verticalAlign=middle;resizable=0;points=[];fontSize=13;fontFamily=Times New Roman;" vertex="1" connectable="0" parent="m32H3NvDA5NygTMLO7Qs-86">
          <mxGeometry x="0.309" y="2" relative="1" as="geometry">
            <mxPoint as="offset" />
          </mxGeometry>
        </mxCell>
        <mxCell id="m32H3NvDA5NygTMLO7Qs-90" value="Admin role" style="ellipse;whiteSpace=wrap;html=1;fontFamily=Times New Roman;fontSize=13;" vertex="1" parent="m32H3NvDA5NygTMLO7Qs-1">
          <mxGeometry x="825" y="130" width="120" height="80" as="geometry" />
        </mxCell>
        <mxCell id="m32H3NvDA5NygTMLO7Qs-91" value="" style="endArrow=classic;html=1;rounded=0;fontFamily=Times New Roman;fontSize=13;labelBorderColor=none;dashed=1;exitX=1;exitY=0.5;exitDx=0;exitDy=0;entryX=0.056;entryY=0.708;entryDx=0;entryDy=0;entryPerimeter=0;" edge="1" parent="m32H3NvDA5NygTMLO7Qs-1" source="m32H3NvDA5NygTMLO7Qs-81" target="m32H3NvDA5NygTMLO7Qs-90">
          <mxGeometry width="50" height="50" relative="1" as="geometry">
            <mxPoint x="734.0667188777925" y="146.07816812107512" as="sourcePoint" />
            <mxPoint x="835" y="160" as="targetPoint" />
          </mxGeometry>
        </mxCell>
        <mxCell id="m32H3NvDA5NygTMLO7Qs-92" value="&amp;lt;&amp;lt;Include&amp;gt;&amp;gt;" style="edgeLabel;html=1;align=center;verticalAlign=middle;resizable=0;points=[];fontSize=13;fontFamily=Times New Roman;" vertex="1" connectable="0" parent="m32H3NvDA5NygTMLO7Qs-91">
          <mxGeometry x="-0.3727" y="2" relative="1" as="geometry">
            <mxPoint as="offset" />
          </mxGeometry>
        </mxCell>
        <mxCell id="m32H3NvDA5NygTMLO7Qs-9" value="User" style="shape=umlActor;verticalLabelPosition=bottom;verticalAlign=top;html=1;outlineConnect=0;" vertex="1" parent="1">
          <mxGeometry x="890" y="810" width="110" height="150" as="geometry" />
        </mxCell>
        <mxCell id="m32H3NvDA5NygTMLO7Qs-28" value="" style="endArrow=none;html=1;rounded=0;labelBorderColor=none;fontFamily=Times New Roman;fontSize=13;" edge="1" parent="1" source="m32H3NvDA5NygTMLO7Qs-9" target="m32H3NvDA5NygTMLO7Qs-10">
          <mxGeometry width="50" height="50" relative="1" as="geometry">
            <mxPoint x="1830" y="920" as="sourcePoint" />
            <mxPoint x="1880" y="870" as="targetPoint" />
          </mxGeometry>
        </mxCell>
        <mxCell id="m32H3NvDA5NygTMLO7Qs-29" value="" style="endArrow=none;html=1;rounded=0;labelBorderColor=none;fontFamily=Times New Roman;fontSize=13;" edge="1" parent="1" source="m32H3NvDA5NygTMLO7Qs-9" target="m32H3NvDA5NygTMLO7Qs-16">
          <mxGeometry width="50" height="50" relative="1" as="geometry">
            <mxPoint x="1830" y="920" as="sourcePoint" />
            <mxPoint x="1880" y="870" as="targetPoint" />
          </mxGeometry>
        </mxCell>
        <mxCell id="m32H3NvDA5NygTMLO7Qs-30" value="" style="endArrow=none;html=1;rounded=0;labelBorderColor=none;fontFamily=Times New Roman;fontSize=13;" edge="1" parent="1" source="m32H3NvDA5NygTMLO7Qs-9" target="m32H3NvDA5NygTMLO7Qs-20">
          <mxGeometry width="50" height="50" relative="1" as="geometry">
            <mxPoint x="1830" y="920" as="sourcePoint" />
            <mxPoint x="1880" y="870" as="targetPoint" />
          </mxGeometry>
        </mxCell>
        <mxCell id="m32H3NvDA5NygTMLO7Qs-32" value="" style="endArrow=none;html=1;rounded=0;labelBorderColor=none;fontFamily=Times New Roman;fontSize=13;" edge="1" parent="1" source="m32H3NvDA5NygTMLO7Qs-9" target="m32H3NvDA5NygTMLO7Qs-11">
          <mxGeometry width="50" height="50" relative="1" as="geometry">
            <mxPoint x="1830" y="920" as="sourcePoint" />
            <mxPoint x="1880" y="870" as="targetPoint" />
          </mxGeometry>
        </mxCell>
        <mxCell id="m32H3NvDA5NygTMLO7Qs-33" value="" style="endArrow=none;html=1;rounded=0;labelBorderColor=none;fontFamily=Times New Roman;fontSize=13;" edge="1" parent="1" source="m32H3NvDA5NygTMLO7Qs-9" target="m32H3NvDA5NygTMLO7Qs-12">
          <mxGeometry width="50" height="50" relative="1" as="geometry">
            <mxPoint x="1830" y="920" as="sourcePoint" />
            <mxPoint x="1880" y="870" as="targetPoint" />
          </mxGeometry>
        </mxCell>
        <mxCell id="m32H3NvDA5NygTMLO7Qs-34" value="" style="endArrow=none;html=1;rounded=0;labelBorderColor=none;fontFamily=Times New Roman;fontSize=13;" edge="1" parent="1" source="m32H3NvDA5NygTMLO7Qs-9" target="m32H3NvDA5NygTMLO7Qs-13">
          <mxGeometry width="50" height="50" relative="1" as="geometry">
            <mxPoint x="1830" y="920" as="sourcePoint" />
            <mxPoint x="1880" y="870" as="targetPoint" />
          </mxGeometry>
        </mxCell>
        <mxCell id="m32H3NvDA5NygTMLO7Qs-35" value="" style="endArrow=none;html=1;rounded=0;labelBorderColor=none;fontFamily=Times New Roman;fontSize=13;" edge="1" parent="1" source="m32H3NvDA5NygTMLO7Qs-9" target="m32H3NvDA5NygTMLO7Qs-14">
          <mxGeometry width="50" height="50" relative="1" as="geometry">
            <mxPoint x="1830" y="920" as="sourcePoint" />
            <mxPoint x="1880" y="870" as="targetPoint" />
          </mxGeometry>
        </mxCell>
        <mxCell id="m32H3NvDA5NygTMLO7Qs-36" value="" style="endArrow=none;html=1;rounded=0;labelBorderColor=none;fontFamily=Times New Roman;fontSize=13;" edge="1" parent="1" source="m32H3NvDA5NygTMLO7Qs-9" target="m32H3NvDA5NygTMLO7Qs-15">
          <mxGeometry width="50" height="50" relative="1" as="geometry">
            <mxPoint x="840" y="980" as="sourcePoint" />
            <mxPoint x="1880" y="870" as="targetPoint" />
          </mxGeometry>
        </mxCell>
        <mxCell id="m32H3NvDA5NygTMLO7Qs-37" value="" style="endArrow=none;html=1;rounded=0;labelBorderColor=none;fontFamily=Times New Roman;fontSize=13;" edge="1" parent="1" source="m32H3NvDA5NygTMLO7Qs-9" target="m32H3NvDA5NygTMLO7Qs-17">
          <mxGeometry width="50" height="50" relative="1" as="geometry">
            <mxPoint x="1830" y="920" as="sourcePoint" />
            <mxPoint x="1880" y="870" as="targetPoint" />
          </mxGeometry>
        </mxCell>
        <mxCell id="m32H3NvDA5NygTMLO7Qs-38" value="" style="endArrow=none;html=1;rounded=0;labelBorderColor=none;fontFamily=Times New Roman;fontSize=13;entryX=0.306;entryY=0.063;entryDx=0;entryDy=0;entryPerimeter=0;" edge="1" parent="1" source="m32H3NvDA5NygTMLO7Qs-9" target="m32H3NvDA5NygTMLO7Qs-18">
          <mxGeometry width="50" height="50" relative="1" as="geometry">
            <mxPoint x="1830" y="920" as="sourcePoint" />
            <mxPoint x="1880" y="870" as="targetPoint" />
          </mxGeometry>
        </mxCell>
        <mxCell id="m32H3NvDA5NygTMLO7Qs-73" value="" style="endArrow=none;html=1;rounded=0;labelBorderColor=none;fontFamily=Times New Roman;fontSize=13;" edge="1" parent="1" source="m32H3NvDA5NygTMLO7Qs-9" target="m32H3NvDA5NygTMLO7Qs-72">
          <mxGeometry width="50" height="50" relative="1" as="geometry">
            <mxPoint x="1009.9999999999995" y="895.436470860885" as="sourcePoint" />
            <mxPoint x="1530.0035785986352" y="899.5631328538734" as="targetPoint" />
          </mxGeometry>
        </mxCell>
        <mxCell id="m32H3NvDA5NygTMLO7Qs-74" value="" style="endArrow=none;html=1;rounded=0;labelBorderColor=none;fontFamily=Times New Roman;fontSize=13;entryX=0;entryY=1;entryDx=0;entryDy=0;" edge="1" parent="1" source="m32H3NvDA5NygTMLO7Qs-9" target="m32H3NvDA5NygTMLO7Qs-71">
          <mxGeometry width="50" height="50" relative="1" as="geometry">
            <mxPoint x="1019.9999999999995" y="905.436470860885" as="sourcePoint" />
            <mxPoint x="1540.0035785986352" y="909.5631328538734" as="targetPoint" />
          </mxGeometry>
        </mxCell>
        <mxCell id="m32H3NvDA5NygTMLO7Qs-88" value="" style="endArrow=classic;html=1;rounded=0;fontFamily=Times New Roman;fontSize=13;labelBorderColor=none;dashed=1;" edge="1" parent="1" source="m32H3NvDA5NygTMLO7Qs-84">
          <mxGeometry width="50" height="50" relative="1" as="geometry">
            <mxPoint x="1689.0800000000004" y="891.3600000000001" as="sourcePoint" />
            <mxPoint x="1990" y="740" as="targetPoint" />
          </mxGeometry>
        </mxCell>
        <mxCell id="m32H3NvDA5NygTMLO7Qs-89" value="&amp;lt;&amp;lt;Include&amp;gt;&amp;gt;" style="edgeLabel;html=1;align=center;verticalAlign=middle;resizable=0;points=[];fontSize=13;fontFamily=Times New Roman;" vertex="1" connectable="0" parent="m32H3NvDA5NygTMLO7Qs-88">
          <mxGeometry x="-0.3727" y="2" relative="1" as="geometry">
            <mxPoint as="offset" />
          </mxGeometry>
        </mxCell>
        <mxCell id="m32H3NvDA5NygTMLO7Qs-93" value="Admin" style="shape=umlActor;verticalLabelPosition=bottom;verticalAlign=top;html=1;outlineConnect=0;fontFamily=Times New Roman;fontSize=13;" vertex="1" parent="1">
          <mxGeometry x="880" y="1330" width="100" height="160" as="geometry" />
        </mxCell>
        <mxCell id="m32H3NvDA5NygTMLO7Qs-94" value="" style="endArrow=none;html=1;rounded=0;labelBorderColor=none;fontFamily=Times New Roman;fontSize=13;entryX=0;entryY=0.5;entryDx=0;entryDy=0;" edge="1" parent="1" source="m32H3NvDA5NygTMLO7Qs-93" target="m32H3NvDA5NygTMLO7Qs-18">
          <mxGeometry width="50" height="50" relative="1" as="geometry">
            <mxPoint x="1500" y="1270" as="sourcePoint" />
            <mxPoint x="1550" y="1220" as="targetPoint" />
          </mxGeometry>
        </mxCell>
        <mxCell id="m32H3NvDA5NygTMLO7Qs-95" value="" style="endArrow=none;html=1;rounded=0;labelBorderColor=none;fontFamily=Times New Roman;fontSize=13;" edge="1" parent="1" source="m32H3NvDA5NygTMLO7Qs-93" target="m32H3NvDA5NygTMLO7Qs-17">
          <mxGeometry width="50" height="50" relative="1" as="geometry">
            <mxPoint x="1390" y="1490" as="sourcePoint" />
            <mxPoint x="1440" y="1440" as="targetPoint" />
          </mxGeometry>
        </mxCell>
        <mxCell id="m32H3NvDA5NygTMLO7Qs-96" value="" style="endArrow=none;html=1;rounded=0;labelBorderColor=none;fontFamily=Times New Roman;fontSize=13;entryX=0;entryY=1;entryDx=0;entryDy=0;" edge="1" parent="1" source="m32H3NvDA5NygTMLO7Qs-93" target="m32H3NvDA5NygTMLO7Qs-10">
          <mxGeometry width="50" height="50" relative="1" as="geometry">
            <mxPoint x="1390" y="1490" as="sourcePoint" />
            <mxPoint x="1440" y="1440" as="targetPoint" />
          </mxGeometry>
        </mxCell>
      </root>
    </mxGraphModel>
  </diagram>
</mxfile>
